<svg class="main-svg" xmlns="http://www.w3.org/2000/svg" xmlns:xlink="http://www.w3.org/1999/xlink" width="600" height="400" style="" viewBox="0 0 600 400"><rect x="0" y="0" width="600" height="400" style="fill: rgb(255, 255, 255); fill-opacity: 1;"/><defs id="defs-95126e"><g class="clips"><clipPath id="clip95126exyplot" class="plotclip"><rect width="500" height="300"/></clipPath><clipPath class="axesclip" id="clip95126ex"><rect x="50" y="0" width="500" height="400"/></clipPath><clipPath class="axesclip" id="clip95126ey"><rect x="0" y="50" width="600" height="300"/></clipPath><clipPath class="axesclip" id="clip95126exy"><rect x="50" y="50" width="500" height="300"/></clipPath></g><g class="gradients"/><g class="patterns"/></defs><g class="bglayer"><rect class="bg" x="46" y="46" width="508" height="308" style="fill: rgb(229, 236, 246); fill-opacity: 1; stroke-width: 0;"/></g><g class="layer-below"><g class="imagelayer"/><g class="shapelayer"/></g><g class="cartesianlayer"><g class="subplot xy"><g class="layer-subplot"><g class="shapelayer"/><g class="imagelayer"/></g><g class="minor-gridlayer"><g class="x"/><g class="y"/></g><g class="gridlayer"><g class="x"><path class="xgrid crisp" transform="translate(142.51,0)" d="M0,50v300" style="stroke: rgb(255, 255, 255); stroke-opacity: 1; stroke-width: 1px;"/><path class="xgrid crisp" transform="translate(235.15,0)" d="M0,50v300" style="stroke: rgb(255, 255, 255); stroke-opacity: 1; stroke-width: 1px;"/><path class="xgrid crisp" transform="translate(327.78,0)" d="M0,50v300" style="stroke: rgb(255, 255, 255); stroke-opacity: 1; stroke-width: 1px;"/><path class="xgrid crisp" transform="translate(420.42,0)" d="M0,50v300" style="stroke: rgb(255, 255, 255); stroke-opacity: 1; stroke-width: 1px;"/><path class="xgrid crisp" transform="translate(513.05,0)" d="M0,50v300" style="stroke: rgb(255, 255, 255); stroke-opacity: 1; stroke-width: 1px;"/></g><g class="y"><path class="ygrid crisp" transform="translate(0,275.63)" d="M50,0h500" style="stroke: rgb(255, 255, 255); stroke-opacity: 1; stroke-width: 1px;"/><path class="ygrid crisp" transform="translate(0,222.27)" d="M50,0h500" style="stroke: rgb(255, 255, 255); stroke-opacity: 1; stroke-width: 1px;"/><path class="ygrid crisp" transform="translate(0,168.91)" d="M50,0h500" style="stroke: rgb(255, 255, 255); stroke-opacity: 1; stroke-width: 1px;"/><path class="ygrid crisp" transform="translate(0,115.55)" d="M50,0h500" style="stroke: rgb(255, 255, 255); stroke-opacity: 1; stroke-width: 1px;"/><path class="ygrid crisp" transform="translate(0,62.19)" d="M50,0h500" style="stroke: rgb(255, 255, 255); stroke-opacity: 1; stroke-width: 1px;"/></g></g><g class="zerolinelayer"><path class="yzl zl crisp" transform="translate(0,328.98)" d="M50,0h500" style="stroke: rgb(255, 255, 255); stroke-opacity: 1; stroke-width: 2px;"/></g><path class="xlines-below"/><path class="ylines-below"/><g class="overlines-below"/><g class="xaxislayer-below"/><g class="yaxislayer-below"/><g class="overaxes-below"/><g class="plot" transform="translate(50,50)" clip-path="url(#clip95126exyplot)"><g class="scatterlayer mlayer"><g class="trace scatter tracef8b8b221-4ae8-432e-a037-000362bae3be" style="stroke-miterlimit: 2; opacity: 1;"><g class="fills"/><g class="errorbars"/><g class="lines"><path class="js-line" d="M0,272.44L0.08,272.16L0.58,273.06L0.6,272.47L0.62,252.97L0.64,250.22L1.23,270.75L1.25,270.66L1.29,270.61L2.09,272.12L2.11,271.84L2.13,271.69L2.19,271.66L2.57,272.61L2.88,271.88L2.9,272.13L3.65,273L3.75,272.93L3.85,272.86L5.85,273.37L5.95,272.88L8.65,272.96L8.75,272.65L9.05,273.38L9.55,272.91L9.65,272.66L10.35,273.16L10.45,272.72L10.55,272.5L11.05,273.19L11.35,272.72L11.45,272.76L15.45,272.77L15.55,273.2L15.65,272.51L16.35,272.86L16.45,272.99L17.05,273.19L17.25,272.86L17.35,272.69L17.85,272.32L18.25,272.93L18.35,272.72L18.75,273.14L19.25,272.87L19.35,272.6L19.65,272.41L20.05,272.84L20.15,272.67L20.25,272.89L20.95,272.06L21.05,272.18L21.15,272.25L21.35,271.95L21.55,272.38L21.75,271.81L21.85,271.93L22.05,271.76L22.85,272.58L22.95,272.27L23.15,271.96L23.45,272.74L23.55,273.27L23.65,273.61L23.95,272.94L24.05,272.19L24.35,267.53L24.45,264.37L24.75,259.11L25.05,265.44L25.15,266.11L25.85,275L26.15,273.28L26.25,271.93L26.45,270.49L26.95,272.02L27.05,271.97L27.55,267.12L27.65,266L27.85,264.96L28.25,266.53L28.35,267.18L29.25,269.28L29.45,269L29.55,268.76L30.45,268.44L30.55,268.01L31.95,270L32.05,270.54L33.55,273.06L33.65,272.93L33.75,273.04L34.55,273.23L34.65,273.11L34.85,273.44L35.55,272.92L35.65,273.11L36.05,272.86L36.65,273.41L36.75,273.22L37.45,273.38L37.55,273.13L37.65,273.11L39.15,273.36L39.25,273.19L40.15,272.72L40.35,272.93L40.45,272.95L41.05,272.97L41.15,272.59L42.16,273.33L42.25,273.36L42.86,273.05L42.96,273.37L43.06,273.5L43.56,272.88L43.86,273.08L43.96,273.36L44.56,273.13L44.76,273.24L44.86,273.36L44.96,273.7L45.16,273.16L45.56,273.45L45.66,273.35L46.16,273.59L46.36,272.95L46.46,273.13L46.56,273.36L46.86,272.91L47.26,273.17L47.36,273.41L48.16,273.15L48.26,273.36L48.36,273.29L48.86,273.62L49.26,273.1L49.36,273.13L52.06,273.58L52.16,273.8L53.16,273.19L53.26,273.57L53.86,273.14L54.06,273.4L54.16,273.62L54.26,273.22L54.36,273.8L54.96,273.47L55.06,273.57L55.26,273.8L55.96,273.38L56.06,273.74L56.76,273.21L56.86,273.26L56.96,273.72L58.06,273.22L58.16,273.49L58.76,273.02L58.96,273.13L59.06,273.31L60.86,273.48L60.96,273.39L61.46,273.13L61.76,273.38L61.86,273.15L62.56,273.76L62.75,273.2L62.86,273.26L64.16,273.58L64.26,273.04L65.36,273.28L65.46,273.15L66.26,273.38L66.36,273.31L66.46,273.07L67.76,273.14L67.86,273.12L68.96,273.21L69.06,273.05L69.96,273.23L70.06,273.21L70.26,272.78L70.66,273.57L70.86,273.22L70.96,273.09L71.76,273.21L71.86,272.95L71.96,273.56L72.66,273.24L72.76,273.21L72.96,273L73.66,273.29L73.76,273.23L74.66,273.35L74.76,273.16L75.76,273.43L75.86,273.1L76.06,273.27L76.46,272.67L76.66,272.95L76.76,272.99L78.36,273.1L78.46,272.91L79.95,273.13L80.05,273.22L81.25,272.96L81.35,272.99L81.96,273.32L82.16,273.2L82.26,273.22L83.96,273.28L84.06,272.98L85.15,273.25L85.25,272.96L86.25,273.49L86.35,272.79L86.95,273.25L87.16,273.01L87.26,273.11L88.35,273.19L88.45,272.83L89.36,273.22L89.46,272.98L90.76,273.38L90.86,272.88L91.76,273.46L91.86,273.34L92.76,272.8L92.86,273.1L93.76,273.63L93.86,273.21L94.56,273.49L94.66,273.42L94.76,273.31L98.46,273.46L98.56,273.67L98.86,273.15L99.46,273.52L99.56,273.54L99.96,273.69L100.16,273.14L100.26,273.31L100.36,273.72L100.66,273.11L101.16,273.52L101.26,273.51L102.26,273.31L102.36,273.79L103.36,273.1L103.46,273.37L103.66,273.59L104.46,272.8L104.56,273.01L104.66,273.12L105.86,273.13L105.96,272.85L106.86,273.5L107.16,273.21L107.26,273.2L108.36,273L108.46,272.9L108.86,272.57L109.16,272.91L109.26,273.13L109.36,272.76L109.86,273.37L110.06,273.03L110.16,273.16L110.76,273.45L110.96,273.28L111.06,272.98L111.86,273.33L111.96,273.28L112.06,273.32L113.96,272.93L114.06,272.74L114.26,273.22L114.86,272.99L114.96,272.76L115.76,273.08L115.86,272.87L116.06,273.22L116.56,272.79L116.66,272.29L117.56,272.64L117.66,272.2L118.66,272.96L118.76,272.74L119.46,273.38L119.56,273.01L119.66,273.03L120.86,272.89L120.96,272.9L121.76,272.46L121.86,272.83L122.06,272.98L122.26,272.52L122.36,272.45L122.46,272.32L122.56,272.45L122.76,271.86L122.86,272L122.96,271.28L124.26,269.39L124.36,269.89L125.26,270.94L125.56,270.63L125.66,270.29L126.77,268.22L126.87,268.26L128.17,263.72L128.27,264.06L128.37,264.6L129.77,270.59L129.87,270.08L129.97,270.23L131.07,270.47L131.17,270.4L132.17,266.48L132.27,264.94L133.07,258.97L133.57,259.77L133.67,259.92L134.97,263.83L135.07,264.05L135.17,263.8L135.37,264.69L135.47,264.65L135.57,265.22L136.67,266.01L136.77,265.83L136.97,265.75L137.27,266.04L137.47,265.87L137.57,265.14L137.87,264.87L138.17,265.37L138.27,265.62L138.57,267.49L138.67,268.06L139.57,269.81L139.67,269.32L139.78,269.16L139.98,269.4L140.28,269.23L140.38,269.35L140.48,269.87L141.08,269.24L141.28,269.45L141.38,269.62L142.18,268.99L142.28,269.48L145.08,263.86L145.18,262.73L145.28,263.37L145.78,261.73L145.88,261.75L146.48,261.28L146.58,261.55L146.68,261.76L146.88,260.93L147.09,262.09L147.29,261.63L147.39,261L149.09,264.6L149.19,264.38L149.99,265.97L150.09,265.85L150.19,265.28L150.29,265.56L150.59,264.44L150.69,264.15L150.79,264.52L151.09,262.9L151.19,262.13L152.39,259.98L152.49,259.37L153.49,256.14L153.59,256.36L154.3,258.02L154.4,257.53L154.5,256.72L155.7,253.81L155.8,251.93L155.9,252.31L156.1,250.91L156.2,249.59L156.5,250.67L156.8,248.87L156.9,250.13L157,249.69L158,239.91L158.1,240.45L158.2,239.69L158.3,239.81L158.4,241.45L158.5,242.6L158.6,240.61L158.91,241.74L159.01,239.6L159.91,230.96L160.01,227.44L160.41,224.62L160.51,223.02L160.61,223.38L160.71,221.5L160.81,219.25L161.41,210.98L161.61,214.42L161.71,214.6L162.61,228.91L162.71,228.85L162.81,231.93L163.51,237.83L163.61,240.13L163.71,239.43L163.91,242.64L164.11,241.8L164.21,243.8L165.12,242.1L165.31,242.65L165.41,244.32L165.52,245.7L165.82,243.61L166.12,244.34L166.22,243.8L166.42,243.84L166.52,242.86L167.52,232.98L167.72,233.55L167.82,235.19L167.92,234.12L168.22,236.44L168.42,236.16L168.52,237.72L169.82,226.07L169.92,226.15L170.73,230.23L170.83,228.64L171.22,232.55L171.52,230.79L171.63,229.22L171.83,228.5L171.93,229.78L172.03,227.12L172.23,228.89L172.53,225.27L172.63,224.9L172.73,226.04L173.03,224.67L173.13,221.46L173.23,224L173.73,218.71L173.83,218.29L174.93,207.91L175.03,200.73L175.93,153.05L176.23,159.53L176.33,158.06L176.53,160.01L176.93,151.48L177.13,153.24L177.23,154.43L177.33,150.22L177.73,160.63L177.83,161.6L178.03,158.14L178.23,165.13L178.33,160.52L178.43,158.76L179.43,185.76L179.53,185.28L179.93,196.18L180.23,189.31L180.33,181.85L181.23,155.44L181.63,157.24L181.73,159.37L181.83,156.49L182.23,165.69L182.33,172.61L182.63,179.04L182.73,181.04L184.53,213.9L184.73,211.98L184.83,210.56L186.14,196.19L186.24,196L187.04,205.02L187.24,204.55L187.34,206.39L188.44,220.13L188.54,219.72L189.94,206.65L190.04,208.29L190.84,203.06L190.94,205.25L191.04,204.12L191.74,208.42L191.84,203.75L193.04,214.79L193.14,214.5L193.24,212.27L193.74,202.51L193.84,200.72L194.44,192.52L194.84,193.99L194.94,197.85L195.04,197.48L195.14,199.71L195.24,201.72L197.35,219.75L197.45,218.21L197.75,222.2L197.85,216.17L198.15,214.04L198.35,215.91L198.45,219.2L198.55,216.78L199.25,217.14L199.35,216.68L199.45,216.9L199.55,214.96L199.75,212.85L200.25,218.71L200.36,216.4L200.46,215.23L201.96,192.99L202.06,194.28L202.16,196.28L202.56,210.73L202.66,215.81L202.76,213.54L203.06,220.96L203.36,216.46L203.46,216.25L203.76,213.2L204.06,215.78L204.16,215.92L204.97,221.32L205.07,219.34L205.17,218.7L205.67,209.05L205.77,205.23L205.87,205.04L205.97,207.33L206.57,200L206.87,203.7L206.97,202.71L207.97,219.52L208.07,220.22L208.17,217.91L208.57,224.99L208.67,225.2L208.77,223.31L209.08,227.34L209.28,225.48L209.38,226.19L209.48,226.54L209.58,226.03L209.68,222.68L209.78,224.48L209.98,218.79L210.08,215.35L210.18,214.91L210.28,209.82L210.38,210.15L210.48,209.1L210.68,209.83L210.78,212.72L211.98,227.91L212.08,225.88L212.18,226.4L212.28,225.48L212.38,221.67L213.29,162.17L213.39,151.38L213.69,148.54L214.69,200.11L215.09,188.96L215.19,186.92L215.49,178.23L215.89,186.93L215.99,192.02L217.29,225.83L217.39,226.99L218.99,183.48L219.09,172.9L219.49,158.67L219.79,166.12L219.89,174.44L219.99,172.41L220.19,181.79L220.29,186.96L221.2,216.34L221.3,215.62L221.4,220.84L222,236.89L222.3,229.57L222.4,228.4L223.5,162.5L223.9,171.88L224,185.25L224.8,224.11L225.1,217.95L225.2,219.01L225.3,219.69L225.4,215.11L225.9,209.22L226.11,210.66L226.2,215.04L226.51,215.21L226.61,208.33L226.71,203.59L226.81,202.79L226.91,195.89L227.41,167.57L227.81,180.61L227.91,184.25L229.11,233.03L229.21,235.29L229.51,237.59L229.81,234.57L229.91,231.65L231.12,189.87L231.42,194.83L231.52,201.88L232.42,225.11L232.62,224.8L232.72,225.72L234.23,236.14L234.33,234.17L236.14,223.76L236.24,224.23L237.94,237.75L238.04,237.42L238.44,235.39L238.54,235.72L238.64,237.7L238.74,236.56L238.94,241.52L239.04,243.3L239.44,249.31L239.95,246.88L240.05,245.26L240.15,245.49L240.25,244.32L240.35,242.42L241.25,230.77L241.45,231.45L241.55,233.38L242.35,239.53L242.45,238.49L242.55,235.53L243.15,228.54L243.45,230.28L243.55,230.53L244.45,241.75L244.75,239.67L244.85,239.11L245.26,240.99L245.56,240.01L245.66,238.15L247.36,222.01L247.46,220.2L247.56,220.45L247.66,213.23L248.36,195.39L248.56,197.59L248.66,203.45L250.17,239.4L250.67,238.04L250.77,236.53L251.27,234.87L251.37,236.06L251.47,236.45L252.27,248.54L252.37,250.14L253.37,254.37L253.47,252.83L253.87,248.23L253.97,246.4L254.17,245.18L254.57,246.5L254.67,247.54L255.08,250.94L255.28,245.72L255.38,241.33L255.68,208.69L255.78,184.1L256.77,25L257.07,30.44L257.17,42.01L257.27,30.96L257.67,54.16L257.77,70.23L259.77,234.28L259.87,234.16L260.27,229.98L260.37,230.67L260.47,227.19L260.67,217.95L260.77,210.09L262.17,83.32L262.27,100.19L263.87,227.43L263.97,228.78L266.17,256.31L266.28,256.39L266.98,259.32L267.28,258.9L267.38,258L268.48,253.22L268.58,250L269.58,176.36L269.98,186.79L270.08,192.83L270.88,240.35L271.18,231.03L271.28,224.34L272.48,131.93L272.68,133.04L272.78,150.09L274.28,248.57L274.38,247.27L274.49,247.15L275.19,233.26L275.59,236.33L275.69,236.72L275.79,237.1L275.89,240.52L276.09,240.91L276.29,239.95L276.39,238.69L277.19,195.17L277.29,186.78L277.59,177.05L277.99,182.47L278.09,190.93L278.29,193.95L278.39,202L280.8,244.53L280.9,245.33L281.9,249.67L282,247.87L282.2,245.39L282.3,243.47L283,213.86L283.1,205.65L284.1,158.14L284.4,166.03L284.5,172.49L285.7,224.14L285.9,222.45L286,224.23L286.1,221.65L286.5,230.37L286.6,233.87L287.7,250.06L287.8,249.89L287.9,250.98L288.41,248.35L288.51,248.3L289.11,229.51L289.21,221.17L289.91,174.35L290.31,184.12L290.41,185.95L291.61,235.5L291.71,235.95L293.01,253.6L293.12,254.16L293.32,254.68L293.72,251.95L293.82,249.39L294.72,230.56L295.02,236.41L295.12,237.76L296.42,256.41L296.52,256.56L297.52,258.6L297.62,258.63L299.02,248.28L299.12,244.83L299.32,240.53L299.42,236.15L299.92,219L300.32,228.53L300.42,235.73L302.02,260.82L302.12,260.23L302.42,260.07L302.52,259.5L302.72,259.96L303.02,258.37L303.12,257.76L303.73,254.23L303.83,253.04L304.43,251.46L304.53,252.17L304.63,253.36L306.13,261.12L306.23,260.31L306.63,261.22L306.93,260.13L307.03,260.65L307.13,259.71L308.33,256.04L308.53,256.18L308.63,256.41L309.64,251.93L309.74,251.09L311.34,260.77L311.44,260.6L311.54,260.82L311.74,260.66L311.84,261.69L312.14,260.6L312.24,259.47L313.45,238.52L313.75,242.56L313.85,244.97L315.05,260.47L315.15,260.56L315.25,259.86L315.65,261.14L315.85,260.71L315.95,260.57L316.35,260.89L316.55,259.59L316.85,260.13L316.95,260.52L317.05,259.81L317.55,261.53L317.65,261.83L318.56,261.8L318.66,261.81L318.96,261.19L319.06,262.18L319.36,261.93L319.66,262.61L319.76,262.79L319.86,263.11L319.96,261.89L320.26,261.92L320.36,262.08L320.56,262.71L320.86,262L320.96,261.55L321.76,262.78L321.86,262.8L322.56,262.35L322.66,262.87L322.76,263.25L323.76,262.45L323.86,262.85L324.06,262.11L324.16,263.1L324.56,262.39L324.66,262.68L324.86,262.78L324.96,262.12L325.06,261.59L325.66,254.18L325.76,252.07L326.57,242.73L326.77,245.14L326.87,245.73L328.27,260.7L328.47,260.44L328.57,259.59L329.67,248.33L329.97,250.05L330.07,251.34L331.67,263.54L331.77,263.34L331.87,263.47L332.77,262.91L332.87,263.54L334.27,255.22L334.37,252.48L335.37,229.2L335.57,235.08L335.67,238L336.88,261.8L336.98,262.49L337.08,262.05L337.47,263.4L337.57,263.55L338.87,264.29L338.97,263.97L339.18,264.46L339.57,263.76L339.67,263.77L339.97,262.59L340.07,262.68L340.18,261.91L340.98,256.78L341.48,257.6L341.58,258.09L343.08,264.4L343.18,264.36L343.78,263.7L344.18,264.22L344.28,265.02L344.98,264.15L345.18,264.6L345.28,264.73L345.48,265.09L345.88,264.55L345.98,264.43L346.28,264.88L346.48,264.47L346.58,264L346.98,263.9L347.08,263.43L347.28,263.6L347.48,263.05L347.58,262.45L349.18,246.4L349.28,247.38L349.39,249.71L350.19,258.41L350.29,260.21L351.99,265.79L352.09,265.88L353.09,265.52L353.19,265.95L353.29,265.24L353.89,265.77L353.99,265.75L354.29,266.08L354.79,265.46L354.89,265.92L355.19,265.17L355.69,265.53L355.79,265.87L356.09,265.56L356.59,265.92L356.69,265.68L356.99,265.3L357.09,266.04L357.19,266.34L357.39,265.6L357.99,265.9L358.09,266.19L358.29,266.59L358.59,265.99L358.79,266.32L358.89,266.26L359.9,265.57L359.99,266.02L360.09,266.15L361.1,265.61L361.2,265.64L361.6,266.82L362,266.14L362.1,266.03L362.59,266.8L362.89,266.56L362.99,266.26L363.8,266.44L363.9,265.94L364.3,266.66L364.7,266.39L364.8,266.03L365,265.76L365.2,266.58L365.5,266.28L365.6,265.86L366,266.53L366.4,266.01L366.5,265.65L366.8,266.42L367.2,266.3L367.3,265.63L368,266.42L368.2,265.9L368.3,265.69L369,266.67L369.1,266.46L369.2,265.93L370.2,266.45L370.3,266.22L370.4,266.1L371.3,266.78L371.4,266.69L371.5,266.27L371.6,266L371.9,266.92L372,266.52L372.1,266.92L372.4,266.3L372.8,266.6L372.9,267.09L373.1,267.28L373.4,266.35L373.7,266.91L373.8,266.87L373.89,267.27L374.4,266.48L374.5,266.8L374.6,266.95L375.4,266.87L375.5,266.98L376.3,267.67L376.4,267.17L376.5,266.75L377.1,267.8L377.3,267.15L377.4,266.89L378.2,267.44L378.3,267.11L379.2,267.06L379.3,267.29L380.2,266.13L380.3,266.46L380.4,266.59L381.3,267.58L381.4,267.26L381.9,267.36L382,267.94L382.4,267.54L382.7,268.04L382.8,267.87L383.6,267.95L383.7,267.69L384.4,268.08L384.5,268L384.6,267.69L385.3,268.31L385.4,267.52L385.7,267.39L385.9,268.32L386.3,267.98L386.4,267.92L387,268.21L387.1,267.84L387.2,267.76L388.1,268.76L388.2,268.46L388.7,268.95L388.9,268.14L389.1,268.52L389.2,269.04L389.9,268.59L390,268.64L390.1,268.9L390.4,269.22L390.5,268.36L391.4,268.85L391.5,268.56L391.7,268.78L392,268.34L392.3,268.51L392.4,268.52L392.8,268.7L392.9,268.03L393,269L393.6,268.15L393.8,268.82L393.9,268.62L395,268.74L395.1,268.93L396.6,269.26L396.7,269.33L397.8,268.73L397.9,269.32L398.8,268.97L398.9,269.52L399,269.74L399.3,268.96L399.4,269.45L399.5,268.91L400.3,269.4L400.4,269.14L400.6,269.02L400.9,269.63L401,269.67L401.3,269.86L401.8,269.63L401.9,269.94L402.9,269.44L403,269.68L403.1,270.27L403.7,269.64L403.8,269.69L405.8,269.91L405.9,270.18L406.4,269.78L406.6,270.21L406.7,270.5L407.3,269.73L407.6,269.84L407.7,270.32L408.4,269.81L408.5,270.18L408.6,270.13L408.8,270.21L409.5,269.6L409.6,269.72L410.4,269.71L410.5,269.48L410.6,269.17L411,270.05L411.4,269.81L411.5,269.65L412,270.16L412.2,269.81L412.3,269.49L412.9,270.27L413.1,269.72L413.2,269.6L414.1,270.17L414.2,269.75L414.8,270.23L415,269.98L415.1,269.9L416.8,270.09L416.9,269.9L417.9,270.77L418,270.11L418.8,270.76L418.9,270.54L419,270.51L420.1,270.36L420.2,270.98L421.4,270.69L421.5,270.8L421.6,270.38L422.3,270.57L422.4,270.93L423.2,270.56L423.3,270.62L423.5,270.45L423.8,271.03L424.1,270.7L424.2,270.5L425.2,271.06L425.3,270.49L425.9,271.01L426,270.66L426.1,270.32L426.4,270.95L426.6,270.22L426.7,270.08L427.4,270.59L427.6,270.24L427.7,270.15L428.1,270.58L428.3,270.16L428.4,269.84L428.9,270.45L429.2,270.33L429.3,270.07L429.6,270.72L430.1,270.2L430.2,270.21L430.7,269.89L430.9,270.4L431,270.41L431.1,269.89L431.7,270.16L431.8,270.25L433,270.67L433.1,270.4L433.6,270.91L433.8,270.46L433.9,270.69L434.6,270.3L434.7,270.6L434.8,270.92L435.8,270.45L435.9,270.9L436.7,270.21L436.8,270.72L437.1,270.46L437.7,271.01L437.8,270.74L438.6,270.64L438.7,270.77L438.8,270.83L440,270.46L440.1,270.87L440.3,270.36L440.9,270.7L441,270.94L442.1,270.86L442.2,271.13L443,270.74L443.1,270.91L443.2,271.33L443.3,270.62L443.8,270.98L443.9,270.83L444.2,270.61L444.6,270.91L444.7,270.71L445,271.06L445.5,270.69L445.6,270.89L446.1,271.33L446.4,270.9L446.5,270.84L447.3,271.04L447.4,270.7L447.9,271.46L448.2,271L448.3,270.96L449.1,271.13L449.2,270.89L449.6,270.7L450.1,271.31L450.2,270.61L451,270.85L451.1,270.59L451.9,270.98L452,270.46L452.1,270.15L452.3,270.96L452.7,270.68L452.8,271.04L453.6,270.58L453.7,270.78L454.39,270.39L454.49,270.48L454.6,270.72L455.19,270.76L455.29,270.22L455.99,270.78L456.09,270.1L456.59,270.48L456.89,270.05L456.99,269.91L457.39,270.52L457.89,270.04L457.99,269.82L459.1,270.36L459.2,270.29L460.9,270.28L461,270.36L461.8,270.72L461.9,270.53L462,270.58L462.5,270.34L462.8,270.73L462.89,270.86L464,270.77L464.1,270.44L464.4,270.34L464.9,270.56L465,270.22L465.1,270.43L465.5,269.77L465.6,269.4L465.7,269.58L465.8,268.91L466,268.99L466.1,268.65L466.2,268.94L466.5,268.01L466.6,267.98L466.7,267.46L466.9,267.94L467.1,267.08L467.2,267.11L467.3,266.84L467.4,267.06L467.8,266.35L467.9,265.54L468.4,266.36L468.5,265.31L468.6,265.69L468.69,265.4L468.99,265.7L469.09,265.09L469.3,265.15L469.4,264.98L469.79,264.36L470,264.75L470.1,265.26L470.5,265.33L470.9,264.32L471,264.31L471.1,264.79L471.49,264.04L471.8,264.53L471.9,264.16L472.2,264.88L472.7,263.81L472.8,264.11L473.2,264.98L473.3,263.98L473.5,264.09L473.6,263.87L474.3,264.45L474.4,264.1L474.5,263.82L474.6,265.04L475.2,264.54L475.3,264.2L475.7,263.41L476.1,264.69L476.2,263.92L476.9,264.41L477,264.27L477.1,263.74L477.2,264.74L477.8,264.35L477.9,264.06L478.5,264.22L478.6,264.86L478.8,264.96L479,264.29L479.3,264.87L479.4,265.1L479.5,264.38L479.8,265.72L480.1,265.1L480.2,265.32L480.5,264.89L481.2,266.08L481.3,265.74L482.3,267.03L482.4,266.56L483.5,268.57L483.6,268.3L484.4,268.72L484.5,269.24L485.6,270.15L485.7,269.86L486.5,270.8L486.6,270.35L486.7,270.41L487.1,270.26L487.2,270.8L487.3,270.59L487.4,270.81L488.4,270.76L488.5,271.18L488.7,270.64L489.3,271.17L489.4,270.98L490.1,271.34L490.2,271.24L490.3,271.25L491,271.65L491.3,271.32L491.4,271.07L491.9,271.89L492.3,271.63L492.4,271.45L492.5,271.05L492.9,271.74L493.1,271.55L493.2,271.84L493.5,271.21L493.8,271.69L493.9,271.96L494.6,271.66L494.7,271.92L494.8,272.01L495.6,271.5L495.7,271.59L496.7,272.25L496.8,272.17L498.2,271.98L498.3,272.13L498.5,272.39L499.1,271.95L499.2,272.3L499.9,271.62L500,272.16" style="vector-effect: none; fill: none; stroke: rgb(48, 162, 218); stroke-opacity: 1; stroke-width: 2px; opacity: 1;"/></g><g class="points"/><g class="text"/></g></g></g><g class="overplot"/><path class="xlines-above crisp" d="M0,0" style="fill: none;"/><path class="ylines-above crisp" d="M0,0" style="fill: none;"/><g class="overlines-above"/><g class="xaxislayer-above"><g class="xtick"><text text-anchor="middle" x="0" y="367" transform="translate(142.51,0)" style="font-family: 'Open Sans', verdana, arial, sans-serif; font-size: 12px; fill: rgb(42, 63, 95); fill-opacity: 1; white-space: pre; opacity: 1;">500</text></g><g class="xtick"><text text-anchor="middle" x="0" y="367" style="font-family: 'Open Sans', verdana, arial, sans-serif; font-size: 12px; fill: rgb(42, 63, 95); fill-opacity: 1; white-space: pre; opacity: 1;" transform="translate(235.15,0)">1000</text></g><g class="xtick"><text text-anchor="middle" x="0" y="367" style="font-family: 'Open Sans', verdana, arial, sans-serif; font-size: 12px; fill: rgb(42, 63, 95); fill-opacity: 1; white-space: pre; opacity: 1;" transform="translate(327.78,0)">1500</text></g><g class="xtick"><text text-anchor="middle" x="0" y="367" style="font-family: 'Open Sans', verdana, arial, sans-serif; font-size: 12px; fill: rgb(42, 63, 95); fill-opacity: 1; white-space: pre; opacity: 1;" transform="translate(420.42,0)">2000</text></g><g class="xtick"><text text-anchor="middle" x="0" y="367" style="font-family: 'Open Sans', verdana, arial, sans-serif; font-size: 12px; fill: rgb(42, 63, 95); fill-opacity: 1; white-space: pre; opacity: 1;" transform="translate(513.05,0)">2500</text></g></g><g class="yaxislayer-above"><g class="ytick"><text text-anchor="end" x="45" y="4.199999999999999" transform="translate(0,328.98)" style="font-family: 'Open Sans', verdana, arial, sans-serif; font-size: 12px; fill: rgb(42, 63, 95); fill-opacity: 1; white-space: pre; opacity: 1;">0</text></g><g class="ytick"><text text-anchor="end" x="45" y="4.199999999999999" style="font-family: 'Open Sans', verdana, arial, sans-serif; font-size: 12px; fill: rgb(42, 63, 95); fill-opacity: 1; white-space: pre; opacity: 1;" transform="translate(0,275.63)">2M</text></g><g class="ytick"><text text-anchor="end" x="45" y="4.199999999999999" style="font-family: 'Open Sans', verdana, arial, sans-serif; font-size: 12px; fill: rgb(42, 63, 95); fill-opacity: 1; white-space: pre; opacity: 1;" transform="translate(0,222.27)">4M</text></g><g class="ytick"><text text-anchor="end" x="45" y="4.199999999999999" style="font-family: 'Open Sans', verdana, arial, sans-serif; font-size: 12px; fill: rgb(42, 63, 95); fill-opacity: 1; white-space: pre; opacity: 1;" transform="translate(0,168.91)">6M</text></g><g class="ytick"><text text-anchor="end" x="45" y="4.199999999999999" style="font-family: 'Open Sans', verdana, arial, sans-serif; font-size: 12px; fill: rgb(42, 63, 95); fill-opacity: 1; white-space: pre; opacity: 1;" transform="translate(0,115.55)">8M</text></g><g class="ytick"><text text-anchor="end" x="45" y="4.199999999999999" style="font-family: 'Open Sans', verdana, arial, sans-serif; font-size: 12px; fill: rgb(42, 63, 95); fill-opacity: 1; white-space: pre; opacity: 1;" transform="translate(0,62.19)">10M</text></g></g><g class="overaxes-above"/></g></g><g class="polarlayer"/><g class="smithlayer"/><g class="ternarylayer"/><g class="geolayer"/><g class="funnelarealayer"/><g class="pielayer"/><g class="iciclelayer"/><g class="treemaplayer"/><g class="sunburstlayer"/><g class="glimages"/><defs id="topdefs-95126e"><g class="clips"/></defs><g class="layer-above"><g class="imagelayer"/><g class="shapelayer"/></g><g class="infolayer"><g class="g-gtitle"><text class="gtitle" x="30" y="25" text-anchor="start" dy="0em" style="font-family: 'Open Sans', verdana, arial, sans-serif; font-size: 17px; fill: rgb(42, 63, 95); opacity: 1; font-weight: normal; white-space: pre;">TIC</text></g><g class="g-xtitle"><text class="xtitle" x="300" y="389.8" text-anchor="middle" style="font-family: 'Open Sans', verdana, arial, sans-serif; font-size: 14px; fill: rgb(42, 63, 95); opacity: 1; font-weight: normal; white-space: pre;">rt</text></g><g class="g-ytitle" transform="translate(14.6748046875,0)"><text class="ytitle" transform="rotate(-90,-0.6749999999999972,200)" x="-0.6749999999999972" y="200" text-anchor="middle" style="font-family: 'Open Sans', verdana, arial, sans-serif; font-size: 14px; fill: rgb(42, 63, 95); opacity: 1; font-weight: normal; white-space: pre;">intensity</text></g></g></svg>
