<svg class="main-svg" xmlns="http://www.w3.org/2000/svg" xmlns:xlink="http://www.w3.org/1999/xlink" width="600" height="400" style="" viewBox="0 0 600 400"><rect x="0" y="0" width="600" height="400" style="fill: rgb(255, 255, 255); fill-opacity: 1;"/><defs id="defs-1d4b39"><g class="clips"><clipPath id="clip1d4b39xyplot" class="plotclip"><rect width="500" height="300"/></clipPath><clipPath class="axesclip" id="clip1d4b39x"><rect x="50" y="0" width="500" height="400"/></clipPath><clipPath class="axesclip" id="clip1d4b39y"><rect x="0" y="50" width="600" height="300"/></clipPath><clipPath class="axesclip" id="clip1d4b39xy"><rect x="50" y="50" width="500" height="300"/></clipPath></g><g class="gradients"/><g class="patterns"/></defs><g class="bglayer"><rect class="bg" x="46" y="46" width="508" height="308" style="fill: rgb(229, 236, 246); fill-opacity: 1; stroke-width: 0;"/></g><g class="layer-below"><g class="imagelayer"/><g class="shapelayer"/></g><g class="cartesianlayer"><g class="subplot xy"><g class="layer-subplot"><g class="shapelayer"/><g class="imagelayer"/></g><g class="minor-gridlayer"><g class="x"/><g class="y"/></g><g class="gridlayer"><g class="x"><path class="xgrid crisp" transform="translate(142.59,0)" d="M0,50v300" style="stroke: rgb(255, 255, 255); stroke-opacity: 1; stroke-width: 1px;"/><path class="xgrid crisp" transform="translate(235.46,0)" d="M0,50v300" style="stroke: rgb(255, 255, 255); stroke-opacity: 1; stroke-width: 1px;"/><path class="xgrid crisp" transform="translate(328.32,0)" d="M0,50v300" style="stroke: rgb(255, 255, 255); stroke-opacity: 1; stroke-width: 1px;"/><path class="xgrid crisp" transform="translate(421.19,0)" d="M0,50v300" style="stroke: rgb(255, 255, 255); stroke-opacity: 1; stroke-width: 1px;"/><path class="xgrid crisp" transform="translate(514.06,0)" d="M0,50v300" style="stroke: rgb(255, 255, 255); stroke-opacity: 1; stroke-width: 1px;"/></g><g class="y"><path class="ygrid crisp" transform="translate(0,275.76)" d="M50,0h500" style="stroke: rgb(255, 255, 255); stroke-opacity: 1; stroke-width: 1px;"/><path class="ygrid crisp" transform="translate(0,226.44)" d="M50,0h500" style="stroke: rgb(255, 255, 255); stroke-opacity: 1; stroke-width: 1px;"/><path class="ygrid crisp" transform="translate(0,177.12)" d="M50,0h500" style="stroke: rgb(255, 255, 255); stroke-opacity: 1; stroke-width: 1px;"/><path class="ygrid crisp" transform="translate(0,127.79)" d="M50,0h500" style="stroke: rgb(255, 255, 255); stroke-opacity: 1; stroke-width: 1px;"/><path class="ygrid crisp" transform="translate(0,78.47)" d="M50,0h500" style="stroke: rgb(255, 255, 255); stroke-opacity: 1; stroke-width: 1px;"/></g></g><g class="zerolinelayer"><path class="yzl zl crisp" transform="translate(0,325.09)" d="M50,0h500" style="stroke: rgb(255, 255, 255); stroke-opacity: 1; stroke-width: 2px;"/></g><path class="xlines-below"/><path class="ylines-below"/><g class="overlines-below"/><g class="xaxislayer-below"/><g class="yaxislayer-below"/><g class="overaxes-below"/><g class="plot" transform="translate(50,50)" clip-path="url(#clip1d4b39xyplot)"><g class="scatterlayer mlayer"><g class="trace scatter trace2cc7a1de-a408-498c-88ba-69299f73b232" style="stroke-miterlimit: 2; opacity: 1;"><g class="fills"/><g class="errorbars"/><g class="lines"><path class="js-line" d="M0,274.31L0.06,274.88L0.58,273.29L0.62,273.14L0.8,274.81L1.37,274.63L1.41,274.41L1.68,274.06L1.88,274.64L2.14,274.57L2.61,274.74L5.11,274.23L6.01,274.69L6.61,274.37L8.52,274.76L12.23,274.49L13.23,274.59L20.85,274.47L20.95,274.8L21.15,274.68L23.65,274.83L23.95,274.46L25.46,274.59L29.67,274.17L29.87,273.75L30.97,274.84L31.07,272.19L31.27,274.58L31.87,273.84L31.97,272.65L32.27,272.31L32.88,274.8L32.98,273.27L33.58,274.57L34.28,274.86L34.78,274.04L36.09,275L36.39,274.17L36.99,274.59L38.19,274.86L41.3,274.11L42.3,274.76L42.4,273.94L42.51,274.1L43.41,274.66L45.81,274.67L46.72,274.2L47.82,274.65L49.12,274.8L49.92,274.62L50.93,274.61L51.33,274.67L52.53,274.49L53.23,274.66L53.33,274.2L55.04,274.47L55.94,274.54L57.14,274.45L57.34,274.02L59.15,274.63L59.95,274.44L61.35,274.62L61.95,274.9L62.86,274.56L63.96,274.8L65.16,274.56L65.46,274.66L72.18,274.79L72.48,274.86L73.38,274.55L73.48,274.85L73.88,274.68L74.08,274.21L74.48,274.5L75.29,274.47L75.99,274.67L76.29,274.1L77.09,274.84L78.49,274.61L78.6,274.27L79.2,274.74L79.4,274.81L87.42,274.69L87.52,274.82L87.62,274.59L87.92,274.76L88.62,274.87L88.82,274.63L90.12,274.67L90.33,274.2L90.53,274.28L90.93,274.7L94.94,274.48L96.24,274.03L96.64,274.66L96.84,274.55L97.24,274.26L97.95,274.79L98.15,274.37L98.35,274.27L100.75,274.82L101.46,274.93L102.56,274.67L103.16,274.61L104.77,274.88L104.87,274.03L105.37,274.35L105.47,273.56L105.87,272.64L106.27,274.58L106.37,273.62L106.57,274.64L106.77,272.94L106.87,274.49L107.07,274.49L108.08,272.81L108.18,274.56L108.48,270.88L108.58,274.73L108.88,274.05L108.98,274.67L109.68,271.15L109.78,273.91L110.18,271.27L110.68,272.05L110.78,272.75L111.18,271.68L111.49,273.77L111.59,273.12L111.69,273.15L111.79,271.74L112.29,274.94L112.39,272.7L112.49,272.51L112.99,274.29L113.09,272.08L113.19,273.98L113.39,272.62L114.09,274.81L114.19,274.44L114.29,273.18L114.59,272.75L114.89,274.62L114.99,272.29L115.6,274.77L115.9,274.64L116,272.97L116.2,270.59L116.3,273.91L116.6,273.05L116.7,274.44L117.5,272.45L117.6,273.21L117.9,271.88L118,274L118.5,269.75L118.7,271.66L118.8,273.23L118.91,273.06L119,271.5L119.41,272.13L119.81,267.52L120.01,269.22L120.11,271.19L120.61,268.51L120.81,270.24L120.91,270.99L121.81,260.62L121.91,264.88L123.72,241.72L123.82,237.15L124.42,227.02L124.52,234.44L124.62,242.08L124.82,239.98L125.02,245.66L125.12,247.62L125.32,247.24L126.73,266.57L126.83,262.77L127.53,270.21L127.63,265.02L127.73,266.14L128.33,269.77L128.53,268.34L128.63,268.94L128.83,267.17L129.64,272.71L129.74,272.34L129.94,273.49L130.04,270.67L130.34,273.19L130.44,273.05L130.74,274.18L130.94,272.06L131.14,272.4L131.24,274.67L131.64,272.27L131.95,273.79L132.05,274.25L132.25,272.15L132.85,273.55L132.95,273.81L133.45,274.66L133.55,274.62L133.75,273.45L134.05,272.28L134.15,274.75L134.45,273.31L134.55,273.94L134.85,274.41L135.35,271.16L135.46,271.22L135.56,270.98L136.36,257.67L136.46,247.67L138.36,25L138.46,61.33L138.56,79.33L139.97,271.76L140.07,268.76L140.27,268.53L140.47,271.6L140.87,271.36L140.97,266.45L141.37,272.11L141.78,269.49L141.88,271.78L142.08,271.03L142.38,271.37L142.48,269.37L143.08,273.75L143.28,272.26L143.38,271.09L143.58,272.27L143.68,271.79L143.78,270.34L144.08,270.04L144.18,272.83L144.28,266.32L144.38,269.2L144.69,262.72L144.89,263.88L144.99,261.6L145.59,267.48L145.69,272.71L145.79,270.63L145.89,273.03L146.39,272.31L146.49,272.04L146.69,273.67L147.1,271.36L147.2,269.98L147.6,269.93L148.1,273.49L148.2,272.73L148.5,274.01L149,270.71L149.1,273.87L149.2,274.59L149.61,272.81L149.71,272.82L149.81,271.9L150.01,270.65L150.21,273.6L150.31,272.97L150.41,270.3L150.61,269.7L150.71,270.11L150.81,264.81L151.62,271L151.72,268.93L151.82,266.5L152.02,269.05L152.42,268.03L152.52,268.42L153.42,256.23L153.52,256.56L153.62,261.09L153.92,263.04L154.02,260.29L154.12,265.33L154.43,263.52L154.53,269L154.63,269.58L154.73,266.98L154.83,268.8L154.93,266.56L155.33,266.93L155.53,260.83L155.73,264.07L155.83,264.88L156.13,259.43L156.43,268.87L156.53,264.13L156.63,264.32L157.44,270.5L157.54,270.47L157.64,267.31L158.14,270.63L158.44,264.48L158.54,264.57L158.64,266.47L159.65,249.92L159.75,253.54L160.75,211.48L160.86,221.05L161.46,163.28L161.76,192.6L161.86,197.16L163.27,270.51L163.37,270.39L163.47,273.01L163.77,268.88L164.07,270.72L164.27,271.05L164.97,274.22L165.17,272.9L165.27,272.55L165.47,271.64L165.57,269.68L165.67,270.68L165.77,265.44L165.87,261.13L166.58,242.84L166.88,247.48L166.98,250.73L167.88,273.67L167.98,270.52L168.59,273.99L169.79,273.36L170.09,274.02L170.19,273.52L170.3,272.38L170.4,273.78L170.6,271.89L171,273.09L171.3,273.41L171.4,273.19L171.6,273.67L172.5,273.13L172.7,274.14L172.9,267.74L173.31,274.73L173.91,273.28L174.11,268.2L174.21,272.64L174.31,271.7L175.31,272.46L178.12,269.42L178.82,270.24L183.64,272.85L183.94,271.21L184.24,272.69L184.54,270.66L184.74,268.95L185.04,266.46L185.14,270.64L185.24,272.75L185.44,261.9L185.54,261.4L185.64,260.31L185.74,271.53L186.25,250.02L186.45,255.09L186.55,264.1L186.75,262.71L186.85,272.82L188.35,269.88L188.96,273.49L189.06,266.54L189.76,271.79L190.06,270.5L193.17,272.35L193.87,271.41L194.47,272.89L194.68,272.88L194.88,271.72L195.18,268.48L195.28,269.89L197.28,273.01L197.38,266.33L198.19,273.41L198.49,271.45L198.79,273.64L199.19,271.82L199.29,274.12L199.39,273.61L199.5,268.4L199.8,267.34L200.3,273.97L200.5,270.86L200.8,273.46L201,266.06L201.11,263.1L201.21,274.22L201.71,255.42L201.81,253.54L202.71,195.31L202.81,223.15L202.91,215.91L203.22,239.79L203.32,249.09L203.52,258.33L203.62,263.19L204.12,266.22L204.52,246.74L204.62,245.94L205.12,260.6L205.22,246.05L205.32,234.91L205.42,244.14L205.73,233.08L206.03,237.79L206.13,232.1L206.43,251.8L206.73,231.64L206.83,247.32L206.93,232.43L207.64,253.22L207.74,248.68L207.84,249.81L208.04,234.35L208.24,251.95L208.44,249.16L208.54,258.27L208.64,253.44L209.14,265.13L209.24,260.73L209.34,260.6L209.44,265.9L209.55,266.11L209.65,262L209.75,252.65L210.15,266.09L210.35,259.1L210.45,267.1L210.55,265.96L210.75,270.38L210.85,271.61L211.15,268.12L211.35,272.62L211.45,273.64L212.36,270.37L212.46,272.66L212.56,274.68L212.66,271.75L213.16,273.48L213.36,273.75L214.77,268.27L214.97,271.17L215.77,259.11L215.87,265.27L216.17,273.91L216.48,272.89L217.08,272.41L217.18,273.75L217.38,268.24L217.58,269.84L217.68,268.98L217.78,273.04L218.48,271.39L218.58,266.79L218.99,274.2L219.29,271.22L221.39,271.54L222.1,270.68L222.3,273.39L222.9,253.48L223.1,263.79L223.2,267.5L223.3,273.7L223.51,266L224.91,261.55L225.21,272.61L225.61,260.82L225.71,265.22L225.91,269.21L226.01,268.31L227.02,273.58L229.33,274.06L229.43,274.73L230.33,269.74L230.43,271.48L230.54,273.12L230.74,271.58L230.94,272.33L232.15,272.71L232.45,273.53L233.05,250.89L233.15,247.53L234.26,234.05L234.46,234.65L234.56,236.88L234.76,238.04L235.37,201.46L235.47,186.6L235.77,152.42L235.97,208.49L236.17,166.46L236.27,203.89L237.18,260.26L237.28,259.04L237.38,263.04L238.08,271.25L238.18,267.37L238.28,269.37L238.38,270.35L238.58,266.86L238.68,261.21L238.98,259.94L239.08,263.79L239.18,258.64L239.89,273.15L240.29,272.67L240.39,272.78L240.59,272.74L240.69,273.88L240.89,268.71L241.4,271.87L241.5,273.49L242.6,272.68L242.7,271.18L242.8,273.41L243.1,268.22L243.41,270.31L243.61,272.76L244.01,272.39L244.31,274.6L244.41,274.07L244.81,274.39L245.41,274.75L245.82,268.05L246.22,268.53L246.32,271.12L247.02,262.59L247.12,266.63L247.22,268.36L247.32,269.19L247.52,267.49L247.62,265.19L247.72,266.61L247.93,261.73L248.03,258.23L248.23,261.39L248.53,254.32L248.63,262.99L249.53,184.45L249.83,191.33L249.94,207.93L250.24,233.86L250.34,233.85L250.44,241.3L251.34,260.59L251.44,259.26L251.64,259.45L251.74,262.79L252.04,262.44L253.25,274.21L253.35,273.83L253.45,273.8L254.05,271.21L254.15,273.24L254.26,272.96L254.46,272.03L254.76,274.54L254.96,273.89L255.06,272.56L255.36,274.17L255.46,271.09L255.56,267.92L255.96,269.9L258.96,273.9L260.77,274.22L265.28,272.33L266.49,274.61L266.59,274.42L266.79,272.87L267.09,273.55L267.29,273.99L267.59,274.8L267.69,273.25L267.99,274.32L268.09,273.99L268.8,274.7L269,274.19L269.2,273.73L281.55,274.29L281.65,272.1L282.45,273.83L282.75,273.84L282.95,273.54L283.05,274.41L287.07,270.95L288.77,274.74L288.87,274.27L289.48,274.43L292.19,274.3L293.39,274.61L293.5,272.92L293.9,274.73L294.3,274.15L294.4,274.17L297.11,274.68L297.21,273.67L297.31,274.57L297.41,274.38L298.41,274.24L299.02,274.71L299.12,274.38L303.03,274.66L303.33,274.74L306.64,274.73L307.64,274.74L308.45,274.79L311.47,274.56L311.57,273.79L312.17,269.33L312.37,269.79L312.47,273.01L312.57,272.86L312.67,273.67L312.77,274.14L313.07,272.39L313.17,274.34L313.27,274.29L315.08,273.55L315.79,274.49L315.89,273.44L315.99,273.1L316.09,274.58L316.29,274.13L316.39,274.42L316.69,273.32L316.99,274.56L317.09,274.36L317.29,274.75L317.39,274L317.59,274.79L317.89,274.37L318.1,274.64L318.5,274.99L318.6,273.6L319.3,274.83L319.7,274.69L320.2,274.63L321.21,274.79L328.04,274.66L328.54,274.86L329.54,274.74L330.34,274.43L330.64,274.06L332.75,274.47L333.55,274.64L334.36,274.55L334.76,274.41L337.57,274.57L341.78,274.92L342.18,272.84L348.4,274.56L351.11,274.55L351.31,274.71L352.02,274L352.42,274.66L353.42,274.6L353.72,274.79L354.02,274.05L354.72,274.45L354.82,273.58L355.53,274.58L356.13,274.82L367.96,274.48L368.87,274.98L369.77,274.27L370.87,274.7L379.9,274.78L380,274.89L381.6,274.83L381.9,274.73L382.5,274.8L383.5,274.7L384.81,274.37L385.91,274.21L386.91,274.79L387.71,274.32L388.51,274.15L388.72,274.95L395.54,274.52L395.84,274.74L396.44,274.2L397.84,274.71L401.15,274.51L401.55,274.32L404.66,274.7L404.86,274.51L405.76,274.86L406.96,274.27L409.67,274.87L410.17,274.56L412.78,274.55L414.18,274.51L415.08,274.58L415.49,273.81L415.69,274.88L416.39,274.61L416.49,274.53L421.2,274.84L421.5,273.89L422.91,274.78L423.31,274.68L425.81,274.86L427.62,273.67L429.32,274.61L429.92,274.9L431.73,274.72L432.83,274.64L440.25,274.64L440.55,274.64L441.25,274.45L442.05,274.81L443.05,273.89L443.15,274.6L443.55,274.56L444.46,274.93L444.76,274.75L447.87,274.36L448.07,274.78L448.37,274.33L448.67,274.69L449.37,274.19L449.47,274.77L449.77,274.56L450.77,274.74L451.67,274.68L452.88,274.69L455.88,274.74L457.19,274.73L458.19,274.87L458.39,274.6L459.59,274.37L460.7,274.61L466.61,274.73L466.81,274.49L467.31,274.24L467.51,274.49L468.12,274.2L468.22,274.89L468.62,274.61L469.12,274.68L472.02,274.39L472.22,273.44L473.13,274.85L474.23,274.52L475.13,274.02L475.73,273.3L481.95,274.65L484.06,274.6L496.99,274.43L497.09,274.05L498.9,274.98L499.3,274.72L500,274.65" style="vector-effect: none; fill: none; stroke: rgb(48, 162, 218); stroke-opacity: 1; stroke-width: 2px; opacity: 1;"/></g><g class="points"/><g class="text"/></g></g></g><g class="overplot"/><path class="xlines-above crisp" d="M0,0" style="fill: none;"/><path class="ylines-above crisp" d="M0,0" style="fill: none;"/><g class="overlines-above"/><g class="xaxislayer-above"><g class="xtick"><text text-anchor="middle" x="0" y="367" transform="translate(142.59,0)" style="font-family: 'Open Sans', verdana, arial, sans-serif; font-size: 12px; fill: rgb(42, 63, 95); fill-opacity: 1; white-space: pre; opacity: 1;">500</text></g><g class="xtick"><text text-anchor="middle" x="0" y="367" style="font-family: 'Open Sans', verdana, arial, sans-serif; font-size: 12px; fill: rgb(42, 63, 95); fill-opacity: 1; white-space: pre; opacity: 1;" transform="translate(235.46,0)">1000</text></g><g class="xtick"><text text-anchor="middle" x="0" y="367" style="font-family: 'Open Sans', verdana, arial, sans-serif; font-size: 12px; fill: rgb(42, 63, 95); fill-opacity: 1; white-space: pre; opacity: 1;" transform="translate(328.32,0)">1500</text></g><g class="xtick"><text text-anchor="middle" x="0" y="367" style="font-family: 'Open Sans', verdana, arial, sans-serif; font-size: 12px; fill: rgb(42, 63, 95); fill-opacity: 1; white-space: pre; opacity: 1;" transform="translate(421.19,0)">2000</text></g><g class="xtick"><text text-anchor="middle" x="0" y="367" style="font-family: 'Open Sans', verdana, arial, sans-serif; font-size: 12px; fill: rgb(42, 63, 95); fill-opacity: 1; white-space: pre; opacity: 1;" transform="translate(514.06,0)">2500</text></g></g><g class="yaxislayer-above"><g class="ytick"><text text-anchor="end" x="45" y="4.199999999999999" transform="translate(0,325.09)" style="font-family: 'Open Sans', verdana, arial, sans-serif; font-size: 12px; fill: rgb(42, 63, 95); fill-opacity: 1; white-space: pre; opacity: 1;">0</text></g><g class="ytick"><text text-anchor="end" x="45" y="4.199999999999999" style="font-family: 'Open Sans', verdana, arial, sans-serif; font-size: 12px; fill: rgb(42, 63, 95); fill-opacity: 1; white-space: pre; opacity: 1;" transform="translate(0,275.76)">10k</text></g><g class="ytick"><text text-anchor="end" x="45" y="4.199999999999999" style="font-family: 'Open Sans', verdana, arial, sans-serif; font-size: 12px; fill: rgb(42, 63, 95); fill-opacity: 1; white-space: pre; opacity: 1;" transform="translate(0,226.44)">20k</text></g><g class="ytick"><text text-anchor="end" x="45" y="4.199999999999999" style="font-family: 'Open Sans', verdana, arial, sans-serif; font-size: 12px; fill: rgb(42, 63, 95); fill-opacity: 1; white-space: pre; opacity: 1;" transform="translate(0,177.12)">30k</text></g><g class="ytick"><text text-anchor="end" x="45" y="4.199999999999999" style="font-family: 'Open Sans', verdana, arial, sans-serif; font-size: 12px; fill: rgb(42, 63, 95); fill-opacity: 1; white-space: pre; opacity: 1;" transform="translate(0,127.79)">40k</text></g><g class="ytick"><text text-anchor="end" x="45" y="4.199999999999999" style="font-family: 'Open Sans', verdana, arial, sans-serif; font-size: 12px; fill: rgb(42, 63, 95); fill-opacity: 1; white-space: pre; opacity: 1;" transform="translate(0,78.47)">50k</text></g></g><g class="overaxes-above"/></g></g><g class="polarlayer"/><g class="smithlayer"/><g class="ternarylayer"/><g class="geolayer"/><g class="funnelarealayer"/><g class="pielayer"/><g class="iciclelayer"/><g class="treemaplayer"/><g class="sunburstlayer"/><g class="glimages"/><defs id="topdefs-1d4b39"><g class="clips"/></defs><g class="layer-above"><g class="imagelayer"/><g class="shapelayer"/></g><g class="infolayer"><g class="g-gtitle"><text class="gtitle" x="30" y="25" text-anchor="start" dy="0em" style="font-family: 'Open Sans', verdana, arial, sans-serif; font-size: 17px; fill: rgb(42, 63, 95); opacity: 1; font-weight: normal; white-space: pre;">XIC for m/z=[311, 312]</text></g><g class="g-xtitle"><text class="xtitle" x="300" y="389.8" text-anchor="middle" style="font-family: 'Open Sans', verdana, arial, sans-serif; font-size: 14px; fill: rgb(42, 63, 95); opacity: 1; font-weight: normal; white-space: pre;">rt</text></g><g class="g-ytitle" transform="translate(11.6591796875,0)"><text class="ytitle" transform="rotate(-90,2.340625000000003,200)" x="2.340625000000003" y="200" text-anchor="middle" style="font-family: 'Open Sans', verdana, arial, sans-serif; font-size: 14px; fill: rgb(42, 63, 95); opacity: 1; font-weight: normal; white-space: pre;">intensity</text></g></g></svg>
