<svg class="main-svg" xmlns="http://www.w3.org/2000/svg" xmlns:xlink="http://www.w3.org/1999/xlink" width="600" height="400" style="" viewBox="0 0 600 400"><rect x="0" y="0" width="600" height="400" style="fill: rgb(255, 255, 255); fill-opacity: 1;"/><defs id="defs-682c03"><g class="clips"><clipPath id="clip682c03xyplot" class="plotclip"><rect width="500" height="300"/></clipPath><clipPath class="axesclip" id="clip682c03x"><rect x="50" y="0" width="500" height="400"/></clipPath><clipPath class="axesclip" id="clip682c03y"><rect x="0" y="50" width="600" height="300"/></clipPath><clipPath class="axesclip" id="clip682c03xy"><rect x="50" y="50" width="500" height="300"/></clipPath></g><g class="gradients"/><g class="patterns"/></defs><g class="bglayer"><rect class="bg" x="46" y="46" width="508" height="308" style="fill: rgb(229, 236, 246); fill-opacity: 1; stroke-width: 0;"/></g><g class="layer-below"><g class="imagelayer"/><g class="shapelayer"/></g><g class="cartesianlayer"><g class="subplot xy"><g class="layer-subplot"><g class="shapelayer"/><g class="imagelayer"/></g><g class="minor-gridlayer"><g class="x"/><g class="y"/></g><g class="gridlayer"><g class="x"><path class="xgrid crisp" transform="translate(142.51,0)" d="M0,50v300" style="stroke: rgb(255, 255, 255); stroke-opacity: 1; stroke-width: 1px;"/><path class="xgrid crisp" transform="translate(235.15,0)" d="M0,50v300" style="stroke: rgb(255, 255, 255); stroke-opacity: 1; stroke-width: 1px;"/><path class="xgrid crisp" transform="translate(327.78,0)" d="M0,50v300" style="stroke: rgb(255, 255, 255); stroke-opacity: 1; stroke-width: 1px;"/><path class="xgrid crisp" transform="translate(420.42,0)" d="M0,50v300" style="stroke: rgb(255, 255, 255); stroke-opacity: 1; stroke-width: 1px;"/><path class="xgrid crisp" transform="translate(513.05,0)" d="M0,50v300" style="stroke: rgb(255, 255, 255); stroke-opacity: 1; stroke-width: 1px;"/></g><g class="y"><path class="ygrid crisp" transform="translate(0,275.16999999999996)" d="M50,0h500" style="stroke: rgb(255, 255, 255); stroke-opacity: 1; stroke-width: 1px;"/><path class="ygrid crisp" transform="translate(0,224.54)" d="M50,0h500" style="stroke: rgb(255, 255, 255); stroke-opacity: 1; stroke-width: 1px;"/><path class="ygrid crisp" transform="translate(0,173.91)" d="M50,0h500" style="stroke: rgb(255, 255, 255); stroke-opacity: 1; stroke-width: 1px;"/><path class="ygrid crisp" transform="translate(0,123.28)" d="M50,0h500" style="stroke: rgb(255, 255, 255); stroke-opacity: 1; stroke-width: 1px;"/><path class="ygrid crisp" transform="translate(0,72.65)" d="M50,0h500" style="stroke: rgb(255, 255, 255); stroke-opacity: 1; stroke-width: 1px;"/></g></g><g class="zerolinelayer"><path class="yzl zl crisp" transform="translate(0,325.79)" d="M50,0h500" style="stroke: rgb(255, 255, 255); stroke-opacity: 1; stroke-width: 2px;"/></g><path class="xlines-below"/><path class="ylines-below"/><g class="overlines-below"/><g class="xaxislayer-below"/><g class="yaxislayer-below"/><g class="overaxes-below"/><g class="plot" transform="translate(50,50)" clip-path="url(#clip682c03xyplot)"><g class="scatterlayer mlayer"><g class="trace scatter trace8cd76c62-dfbf-4809-aaaf-83f873082d39" style="stroke-miterlimit: 2; opacity: 1;"><g class="fills"/><g class="errorbars"/><g class="lines"><path class="js-line" d="M0,274.19L0.06,273.9L0.52,274.57L0.6,274.12L0.62,266.7L0.64,265.29L1.27,273.63L1.29,273.46L1.35,273.17L2.19,274.48L2.25,274.37L2.27,274.16L2.82,274.64L3.04,274.45L3.06,274.25L3.1,274.23L3.35,274.6L3.75,274.2L3.85,274.32L4.75,274.51L4.85,274.41L6.85,274.41L6.95,273.94L7.75,274.43L7.85,274.23L8.75,274.34L8.85,274.09L9.45,274.56L9.65,274.22L9.75,274.16L10.25,274.46L10.55,274.19L10.65,274.3L11.95,274.61L12.05,273.82L12.55,274.55L12.95,274.4L13.05,274.17L13.25,274.09L13.65,274.65L13.95,274.46L14.05,274.37L14.75,274.27L14.85,274.4L14.95,274.42L15.25,274.03L15.65,274.41L15.75,274.42L21.45,274.32L21.55,273.71L22.25,274.01L22.35,273.81L22.45,273.76L23.25,274.22L23.35,274.22L23.55,274.51L24.05,273.72L24.15,272.06L24.75,244.36L25.05,255.05L25.15,259.45L25.75,274.52L26.05,273.41L26.15,271.71L27.25,266.76L27.35,269.2L28.25,269.2L28.35,270.89L28.55,270.89L28.65,271.71L28.75,270.89L29.35,271.71L29.45,271.71L30.35,272.33L30.45,273.33L30.55,271.71L31.15,272.33L31.25,273.51L32.05,274.06L32.15,274.4L33.85,274.88L33.95,274.68L35.55,274.51L35.65,274.72L41.25,274.53L41.35,274.2L42.16,274.69L42.25,274.34L43.06,274.74L43.16,274.36L44.06,274.71L44.16,274.44L45.16,274.64L45.26,274.52L45.96,274.72L46.06,274.41L46.16,274.19L46.56,274.73L46.96,274.61L47.06,274.69L47.96,274.39L48.06,274.44L49.06,274.58L49.16,274.65L49.46,274.77L49.56,274.36L49.86,274.53L49.96,274.78L50.75,274.43L50.85,274.76L51.56,274.41L51.66,274.62L51.76,274.68L52.56,274.61L52.66,274.66L53.66,274.66L53.76,274.39L53.86,274.4L54.96,274.75L55.06,274.3L55.76,274.61L55.86,274.42L55.96,274.41L56.56,274.84L56.66,274.67L56.76,274.37L58.06,274.54L58.16,274.37L58.66,274.66L58.96,274.48L59.06,274.31L59.96,274.67L60.06,274.52L60.36,274.73L60.86,274.45L60.96,274.5L66.46,274.54L66.56,274.38L67.36,274.6L67.46,274.32L68.06,274.72L68.16,274.65L68.26,274.29L68.76,274.62L69.06,274.49L69.16,274.5L74.85,274.58L74.95,274.32L75.86,274.64L75.96,273.98L76.06,274.63L76.76,274.35L76.86,274.73L77.66,274.52L77.76,274.72L78.56,274.34L78.66,274.63L78.76,274.29L79.36,274.47L79.46,274.58L80.35,274.43L80.45,274.63L103.06,274.59L103.16,273.98L103.96,274.7L104.06,274.59L105.56,274.64L105.66,274.7L106.26,274.53L106.36,274.73L106.46,274.86L107.46,274.57L107.56,274.67L108.76,274.47L108.86,274.7L110.06,274.7L110.16,274.7L111.36,274.62L111.46,274.69L112.06,274.45L112.26,274.66L112.36,274.88L113.26,274.68L113.36,274.8L114.16,274.51L114.36,274.8L114.46,274.89L115.36,274.82L115.46,274.86L116.86,274.83L116.96,274.81L117.76,274.63L117.86,274.87L119.86,274.76L119.96,274.79L121.26,274.81L121.36,274.53L122.26,274.85L122.36,274.7L122.56,274.89L122.96,274.52L123.06,274.33L124.16,273.89L124.26,274.07L125.06,274.53L125.16,274.62L126.77,274.56L126.87,274.5L128.37,272.31L128.47,273.02L128.57,273.31L129.87,274.68L129.97,274.66L131.97,274.28L132.07,274.12L133.37,269.59L133.47,271.1L133.57,271.1L135.17,271.84L135.27,272.31L135.47,272.31L135.57,273.3L136.87,273.2L136.97,272.31L137.07,273.36L137.37,271.9L137.77,273.19L137.87,273.31L139.37,274.75L139.47,274.76L140.88,273.46L141.18,273.8L141.28,274.23L141.48,273.69L141.98,274.29L142.08,274.52L143.88,271.89L143.98,272.62L144.18,272.62L144.28,270.92L144.78,272.29L145.08,271.33L145.18,270.17L145.28,271.17L145.68,269.76L145.98,270.76L146.08,270.71L146.48,270.49L146.58,269.13L146.68,270.37L146.99,268.83L147.19,270.07L147.29,268.59L147.49,268.45L148.19,271.65L148.29,271.85L148.39,271.44L148.59,272.42L148.79,272.08L148.89,272.66L150.09,273.74L150.19,273.67L150.29,273.42L150.69,273.96L150.99,273.37L151.09,273.23L151.49,271.93L151.79,273.03L151.89,273.5L152.09,270.6L152.79,270.89L152.89,270.89L153.29,270.89L153.39,271.71L153.49,270.89L153.79,272.33L154,272.33L154.1,273.04L155.1,268.84L155.2,269.52L155.4,267.72L155.7,268.41L155.8,266.52L156,267.82L156.1,265.9L156.2,267.48L156.3,267.35L156.5,267.1L156.6,265.11L156.7,266.84L157.2,264.28L157.4,266.07L157.5,265.97L157.7,265.74L157.8,263.51L157.9,265.62L158.3,263L158.6,265L158.7,264.88L159.51,261.33L159.61,261.16L159.71,260.94L159.81,263.43L160.31,259.52L160.61,260.35L160.71,259.94L160.81,259.51L160.91,253.97L161.21,247.11L161.31,240.81L161.41,235.93L161.81,243.79L161.91,250.44L162.41,257.07L162.81,255.65L162.91,255.78L163.11,256.17L163.21,255.91L163.31,259.94L163.41,260.34L163.51,257.35L164.41,266.03L164.51,266.21L164.61,268.02L164.91,264.45L165.12,264.65L165.22,264.68L165.41,264.7L165.52,262.02L165.72,262.11L165.82,258.84L165.92,258.69L166.02,261.93L166.82,257.7L166.92,257.49L167.42,256.44L167.52,251.84L167.62,255.9L168.22,254.07L168.32,253.77L169.82,249.54L169.92,254.33L170.43,248.72L170.63,253.96L170.73,254.04L171.22,254.26L171.32,249.18L172.23,247.44L172.33,247.23L174.63,237.57L174.73,237L174.93,236.01L175.03,226.39L175.33,223.11L175.43,208.57L175.53,216.27L175.63,201.52L176.23,215.7L176.33,216.27L176.63,217.91L176.93,203.59L177.03,216.83L177.13,216.83L177.23,216.27L177.33,202.23L177.73,201.52L178.13,216.83L178.23,216.83L179.33,219.46L179.43,230.93L179.83,233.9L179.93,224.91L180.03,235.88L180.43,217.6L180.53,217.6L180.63,217.16L181.83,210.81L181.93,222.77L182.23,209.71L182.63,222.77L182.73,223.21L183.73,257.41L183.83,256.89L183.93,259.32L184.33,256L184.53,257.04L184.63,256.14L185.44,242.09L185.54,248.5L185.64,248.24L186.44,239.94L186.54,251.98L187.04,246.11L187.24,251.45L187.34,253.92L187.84,251.27L187.94,255.15L188.04,254.99L188.14,255.22L188.34,251.45L188.74,257.19L188.84,255.57L188.94,255.14L189.14,256.21L189.54,254.65L189.64,255.07L189.74,256.23L190.14,254.66L190.54,255.13L190.64,256.71L190.84,252.31L191.44,252.82L191.54,257.13L192.04,255.32L192.34,255.61L192.44,256.06L192.54,256.74L192.64,255.69L192.74,247.95L192.94,255.51L193.44,248.33L193.54,248.33L193.74,248.33L193.84,241.65L194.34,241.19L194.44,232.84L195.24,241.42L195.34,235.74L195.64,236.54L195.74,242.11L196.25,242.77L196.35,245.89L196.45,242.98L196.95,249.57L197.05,249.73L198.95,265.23L199.05,262.44L199.45,266.18L199.55,263.68L199.65,263.83L199.85,263.09L199.95,265.43L200.05,263.68L200.56,266.62L200.66,266.82L201.76,257.71L202.06,259.9L202.16,259.57L202.36,257.33L202.46,260.38L202.56,259.65L202.66,260.56L202.86,260.46L203.06,266.63L203.36,266.03L203.46,263.16L203.96,266.02L204.26,265.05L204.36,264.7L205.37,268.53L205.47,266.13L205.67,268.41L205.77,266.73L205.87,265.23L206.07,265.93L206.97,256.75L207.07,255.68L207.57,265.71L207.87,261.8L207.97,260.35L208.37,263.61L208.57,259.51L208.77,262.61L208.88,260.74L208.98,263.21L209.68,262.9L209.78,263.12L209.98,263.53L210.08,261.98L210.78,252.92L210.88,257.91L211.58,266.27L211.78,264.98L211.88,265.15L212.08,265.47L212.18,267.06L212.68,254.92L212.78,247.17L213.79,172.93L213.89,191.54L213.99,172.93L214.39,224.36L214.49,231.92L215.19,268.83L215.59,265.88L215.69,264.47L215.99,248.66L216.29,253.08L216.39,260.71L216.99,270.35L217.39,268.81L217.49,268.62L217.69,268.21L218.09,269.73L218.19,268.84L218.29,268.96L218.69,246.64L218.79,235.4L219.39,159.17L219.69,164.23L219.79,183.81L219.99,183.81L220.09,203.25L220.29,215.31L220.4,234.91L220.6,244.22L220.69,252.11L220.89,247.71L221,253.22L221.2,249.18L221.3,254.06L221.4,256.61L221.5,255.68L221.6,260.76L221.7,261.71L222.4,272.44L222.6,268.3L222.7,263.35L223.9,183.92L224.1,196.18L224.2,210.43L224.3,196.18L224.6,240.47L224.7,246.63L225,262.73L225.4,248.59L225.5,242.77L225.6,245.63L226.01,237.06L226.11,244L226.2,236.33L226.51,258.95L226.91,240.09L227.01,240.95L227.71,202.15L228.01,208.1L228.11,220.69L228.91,265.19L229.21,264.1L229.31,264.46L229.91,264.74L230.01,264.33L230.11,257.15L230.21,259.45L230.41,251.43L230.51,249.02L231.32,244.28L231.42,244.44L231.52,255.96L232.62,268.09L233.02,268.03L233.12,268.29L233.53,267.93L234.13,269.84L234.23,268.52L234.73,270.05L234.83,269.99L234.93,266.98L235.03,267.57L235.33,266.3L235.43,265.42L236.44,272.58L236.54,272.08L236.64,270.58L236.74,270.73L236.84,269.41L236.94,268.09L237.44,269.81L237.54,271.11L238.04,272.77L238.24,271.97L238.34,271.18L238.94,266.69L239.14,269.6L239.24,270.83L239.34,269.73L239.64,272.96L239.74,272.6L239.84,272.64L240.65,270.32L240.75,268.76L240.85,268.52L240.95,261.24L241.45,238.09L241.85,245.04L241.95,251.35L242.55,268.07L242.85,262.82L242.95,260.66L243.05,259.02L243.15,261.11L243.65,260.34L243.75,260.48L243.85,257.18L244.25,264.93L244.35,265.48L245.26,272.8L245.36,272.69L245.46,273.37L247.06,268.33L247.16,266.68L247.26,267.7L247.36,267.34L247.46,261.39L248.06,247.34L248.46,253.39L248.56,253.02L248.76,252.65L249.06,253.88L249.16,260.21L249.26,259.62L249.36,264.9L250.17,270.2L250.27,268.96L250.37,269.22L251.07,271.12L251.17,269.98L251.27,269.97L251.47,270.97L251.67,269.56L252.07,270.24L252.17,270.14L252.37,271.77L252.87,270.2L252.97,270.29L253.07,271.99L253.67,269.77L253.77,269.86L253.87,271.09L254.27,268.73L254.47,270.16L254.57,270.18L254.77,270.23L254.87,271.35L255.18,271.48L255.38,264.98L255.48,259.42L256.08,177.92L256.18,158.34L257.37,25L257.47,77.23L257.97,69.29L258.07,136.86L259.27,260.52L259.37,262.21L259.87,267.81L260.17,264.57L260.27,261.38L260.77,252.04L260.87,239.89L262.27,78.45L262.37,117.2L262.47,85.76L262.87,177.12L262.97,191.68L263.87,264.44L264.07,260.66L264.17,259.46L265.37,271.47L265.47,270.26L266.07,271.47L266.17,270.26L266.28,270.26L267.58,270.26L267.68,268.48L268.48,271.47L268.58,270.87L269.18,231.07L269.28,222.57L269.98,199.27L270.08,214.3L270.18,214.3L271.08,266.62L271.18,261.62L271.28,253.8L272.08,153.27L272.58,168.04L272.68,186.64L272.78,184.1L272.98,187.46L273.08,204.48L274.38,268.84L274.49,266.92L275.69,258.17L275.79,263.7L275.89,263.57L275.99,265.44L276.19,266.23L276.29,264.52L276.39,265.46L276.49,261.76L276.99,229.29L277.09,217L277.39,168.91L277.89,191.88L277.99,190.13L278.79,240.94L278.89,239.92L278.99,238.54L279.29,230.46L279.59,242.6L279.69,244.98L280.7,267.31L280.8,266.76L281.2,268.91L281.5,267.36L281.6,267.44L282,268.8L282.1,266.74L282.4,269.62L282.7,266.99L282.8,260.76L283.4,197.75L283.5,181.92L283.9,134.98L284.3,169.82L284.4,167.03L284.5,140.43L284.9,199.02L285,221.41L285.1,219.89L285.2,229.46L285.3,238.25L285.5,246.62L285.8,226.49L285.9,221.91L287.1,257.8L287.2,263.86L287.5,268.48L288.1,268.04L288.21,267.84L288.31,267.68L288.41,264.5L288.61,267.53L289.11,266.36L289.21,259.38L290.21,178.71L290.51,189.13L290.61,206.14L290.71,190.58L291.11,241.71L291.21,240.39L291.71,265.92L292.11,264.32L292.21,265.05L292.91,267.58L293.01,265.32L293.42,267.02L293.52,268.54L294.82,242.91L294.92,250.13L295.02,250.01L295.12,250.13L295.22,255.65L295.32,255.92L295.42,258.91L296.22,266.73L296.32,264.43L296.42,268.39L297.02,265.44L297.12,265.33L297.32,265.62L297.42,265.49L297.52,267.97L297.92,265.69L298.02,268.03L298.12,268.03L298.22,269.68L299.32,250.2L299.42,245.68L300.02,220.25L300.32,231.63L300.42,241.4L300.52,233.27L300.92,259.18L301.02,261.76L301.32,267.86L301.92,266.39L302.02,266.63L303.12,267.96L303.23,264.81L303.33,267.75L303.83,263.53L303.93,262.75L304.53,255.35L304.73,256.17L304.83,261.1L305.83,266.89L305.93,264.67L306.83,267.57L306.93,265.5L307.83,268.48L307.93,267.92L308.13,269.54L308.33,268.02L308.43,266.35L308.63,268.82L309.14,268.06L309.24,266.8L309.54,267.83L309.74,266.49L309.84,266.18L309.94,265.99L310.04,267.96L310.24,266.85L310.74,268.28L310.84,267.46L310.94,267.56L311.54,268.08L311.74,266.23L311.84,266.94L312.14,268.28L312.54,266.69L312.64,262.88L313.55,243.6L313.65,251.12L313.75,256.58L313.85,252.26L314.25,264.2L314.35,267.78L314.45,267.64L314.55,268.68L314.65,267.95L314.75,268.98L314.85,269.54L314.95,267.92L315.35,268.76L315.45,267.4L316.25,268.72L316.35,268.72L316.75,268.78L316.85,266.96L317.65,268.83L317.76,268.84L318.56,267.01L318.66,268.82L319.36,266.9L319.46,268.71L319.66,268.68L319.76,266.81L319.96,268.64L320.36,266.58L320.66,268.43L320.76,268.42L321.16,268.36L321.26,266.39L321.66,268.25L322.16,268.19L322.26,266.2L322.36,268.16L322.96,266.07L323.06,268.04L323.16,268.04L323.36,268.02L323.46,265.99L323.56,267.99L324.06,265.83L324.26,267.84L324.36,265.75L324.96,265.6L325.06,267.68L325.36,265.55L325.76,267.61L325.86,267.61L327.67,267.48L327.77,265.3L327.97,265.29L328.57,267.47L328.67,267.47L328.87,267.48L328.97,265.34L329.07,267.5L329.67,264.91L329.77,264.81L329.87,267.02L330.57,266.84L330.67,266.87L331.17,266.95L331.27,264.67L332.07,267.08L332.17,267.09L332.57,267.15L332.67,268.95L333.37,265.04L333.47,267.26L333.57,267.29L334.07,267.39L334.17,266.22L334.97,227.21L335.57,230.74L335.67,241.92L336.08,252.57L336.17,256.23L336.88,268.32L337.18,268.02L337.28,266.06L337.37,265.88L337.47,267.82L338.17,265.5L338.27,267.59L338.47,267.56L338.57,265.43L338.68,267.64L339.37,267.51L339.47,267.5L339.97,265.25L340.18,265.26L340.28,267.41L341.08,265.07L341.18,267.18L341.58,266.92L341.68,264.61L342.48,266.98L342.58,266.99L342.78,267.01L342.88,264.7L343.58,266.99L343.68,264.72L344.38,264.61L344.58,266.95L344.68,266.93L344.88,266.95L344.98,264.66L345.18,264.64L345.58,266.96L345.78,266.95L345.88,264.64L346.78,266.95L346.88,264.64L347.68,266.97L347.78,266.98L348.08,267.01L348.18,264.69L349.28,238.21L349.48,245.95L349.59,252.57L349.68,247.26L350.08,261.24L350.19,263.88L350.39,268.03L351.09,267.65L351.19,265.57L351.39,265.48L351.49,267.55L351.99,267.51L352.09,265.33L352.79,267.66L352.89,265.55L353.49,265.47L353.59,267.59L353.69,265.42L354.09,265.39L354.39,267.55L354.49,267.54L354.59,265.43L354.79,265.37L354.89,267.5L355.19,267.47L355.29,265.25L355.69,265.15L356.09,267.33L356.19,265.09L356.69,267.34L356.89,267.3L356.99,265.09L357.79,267.37L357.89,267.38L358.79,267.51L358.89,265.39L359.69,267.65L359.8,265.55L360.6,267.72L360.7,265.66L361.3,267.82L361.4,265.75L361.5,265.76L362.29,267.98L362.4,267.98L362.5,265.97L362.99,268.05L363.1,268.05L363.2,268.05L363.3,266.06L363.6,268.1L364,266.13L364.1,268.11L364.4,268.13L364.8,266.14L364.9,268.12L365.8,266.08L365.9,266.07L366,268.06L366.5,265.97L366.6,267.97L366.7,265.91L366.9,267.92L367.2,265.82L367.4,267.84L367.5,265.75L367.8,265.67L367.9,267.74L368.1,265.61L368.6,267.65L368.7,267.63L369.5,265.41L369.6,267.55L370.3,265.35L370.4,267.49L372.7,267.61L372.8,265.51L373.6,267.78L373.7,267.8L374.09,267.91L374.19,265.88L375,268.1L375.1,266.11L375.89,268.32L376,268.34L377.1,268.68L377.2,266.89L378,268.95L378.1,268.98L378.4,269.07L378.5,267.35L379.3,269.31L379.4,269.34L379.6,267.72L379.9,269.44L380.3,267.85L380.4,269.5L380.7,269.54L380.8,267.92L381.6,269.54L381.7,267.92L382.5,269.54L382.6,267.92L383.4,269.54L383.5,269.54L384.1,269.54L384.2,267.92L385,269.54L385.1,269.54L386.7,269.54L386.8,267.92L387.6,269.54L387.7,269.54L388.2,269.54L388.3,267.92L389.1,269.54L389.2,269.54L390.1,269.54L390.2,270.84L391,269.54L391.1,269.54L392.1,269.54L392.2,270.84L392.9,269.54L393,270.84L393.9,269.54L394,269.54L394.4,269.54L394.5,270.84L395.3,269.54L395.4,270.84L396.2,269.54L396.3,270.84L397.1,269.54L397.2,269.54L397.4,269.54L397.5,270.84L398.3,269.54L398.4,270.84L398.9,270.84L399,269.54L399.8,270.84L399.9,269.54L400.8,270.84L400.9,270.84L401.4,270.84L401.5,269.54L402.3,270.84L402.4,270.84L402.8,270.84L402.9,269.54L403.7,270.84L403.8,270.84L404.5,270.84L404.6,271.82L405.4,270.84L405.5,270.84L405.7,270.84L405.8,271.82L406,271.82L406.1,270.84L406.5,270.84L406.6,269.54L407.3,271.82L407.4,270.84L407.5,270.84L407.7,270.84L407.8,271.82L408.6,270.84L408.7,270.84L409.8,270.84L409.9,269.54L410.8,270.84L410.9,270.84L413.1,270.84L413.2,271.82L414,270.84L414.1,270.84L414.5,270.84L414.6,271.82L415.4,270.84L415.5,271.82L415.7,271.82L415.8,270.84L416.6,271.82L416.7,270.84L417.5,271.82L417.6,271.82L420.3,271.82L420.4,272.79L421.2,271.82L421.3,271.82L422.1,272.47L422.2,271.82L422.9,272.79L423,272.47L423.1,271.82L426.3,271.82L426.4,270.84L427.1,272.47L427.2,271.82L427.3,271.82L427.6,272.47L427.7,270.84L428,271.82L428.1,271.82L428.9,270.84L429,271.82L429.2,272.47L429.4,270.84L429.5,271.82L429.6,270.84L430.3,272.47L430.4,271.82L430.5,270.84L431.3,271.82L431.4,271.82L431.8,271.82L431.9,270.84L432,272.47L432.7,271.82L432.8,271.82L435.3,271.82L435.4,270.84L436.2,272.47L436.3,272.47L436.9,272.47L437,271.82L437.7,272.47L437.8,271.82L438.5,272.79L438.6,272.47L438.7,272.47L440.2,272.47L440.3,271.82L440.8,272.79L441.1,272.47L441.2,272.47L442.7,272.47L442.8,271.82L443,273.07L443.7,272.79L443.8,272.79L444.1,273.08L444.6,272.47L444.7,272.79L445.5,272.47L445.6,272.47L445.7,271.82L446,272.79L446.2,272.47L446.3,273.05L446.9,272.47L447,272.79L447.1,273.05L447.7,271.82L447.9,272.47L448,272.79L448.6,271.82L448.7,272.47L448.8,272.79L449.1,273L449.6,272.47L449.7,273L450.8,271.82L450.9,272.79L451,271.82L451.6,272.47L451.7,272.47L453.7,272.47L453.8,272.79L454.6,271.82L454.69,272.47L454.79,272.79L454.99,271.82L455.19,271.82L455.29,270.84L455.79,272.47L456.09,271.82L456.19,271.82L456.59,272.47L456.89,271.82L456.99,271.82L457.29,271.82L457.39,270.84L458.2,272.47L458.3,271.82L458.5,271.82L458.6,270.84L459,272.47L459.4,271.82L459.5,271.82L460.2,272.47L460.3,271.82L461.1,272.47L461.2,272.47L461.3,271.82L461.9,272.47L462,272.47L464.6,272.47L464.7,271.82L464.9,272.79L465.3,271.82L465.4,270.84L465.5,271.82L465.8,269.54L466.1,270.84L466.2,270.84L467.1,267.89L467.2,269.33L467.5,268.98L467.6,267.12L467.7,268.77L468.2,265.95L468.3,267.88L468.4,267.76L468.6,267.6L468.69,265.31L468.79,265.15L468.89,267.25L469.19,267.01L469.3,264.63L469.4,266.82L469.89,263.92L470.1,266.27L470.2,266.25L470.8,266L470.9,263.38L471,265.88L471.69,265.68L471.8,265.62L472.3,265.55L472.4,262.89L472.6,265.52L472.8,262.79L473.2,265.41L473.3,265.42L477.7,265.62L477.8,263.03L478.6,265.93L478.7,265.99L479.4,266.27L479.5,263.87L480.3,266.7L480.4,266.74L482,267.6L482.1,269.35L482.2,267.73L482.8,269.8L482.9,269.87L484.4,270.84L484.5,269.54L485.3,271.82L485.4,271.82L486.8,272.47L486.9,272.79L487.1,271.82L487.4,273.11L487.6,272.79L487.7,272.79L488.9,273.16L489,273.59L489.9,273.37L490,273.54L490.3,273.85L490.7,273.47L490.8,273.66L490.9,273.85L491.1,273.13L491.6,273.81L491.7,273.72L494.6,274.09L494.7,273.95L495.6,274.31L495.7,274.23L496.7,274.03L496.8,274.28L500,274.24" style="vector-effect: none; fill: none; stroke: rgb(48, 162, 218); stroke-opacity: 1; stroke-width: 2px; opacity: 1;"/></g><g class="points"/><g class="text"/></g></g></g><g class="overplot"/><path class="xlines-above crisp" d="M0,0" style="fill: none;"/><path class="ylines-above crisp" d="M0,0" style="fill: none;"/><g class="overlines-above"/><g class="xaxislayer-above"><g class="xtick"><text text-anchor="middle" x="0" y="367" transform="translate(142.51,0)" style="font-family: 'Open Sans', verdana, arial, sans-serif; font-size: 12px; fill: rgb(42, 63, 95); fill-opacity: 1; white-space: pre; opacity: 1;">500</text></g><g class="xtick"><text text-anchor="middle" x="0" y="367" style="font-family: 'Open Sans', verdana, arial, sans-serif; font-size: 12px; fill: rgb(42, 63, 95); fill-opacity: 1; white-space: pre; opacity: 1;" transform="translate(235.15,0)">1000</text></g><g class="xtick"><text text-anchor="middle" x="0" y="367" style="font-family: 'Open Sans', verdana, arial, sans-serif; font-size: 12px; fill: rgb(42, 63, 95); fill-opacity: 1; white-space: pre; opacity: 1;" transform="translate(327.78,0)">1500</text></g><g class="xtick"><text text-anchor="middle" x="0" y="367" style="font-family: 'Open Sans', verdana, arial, sans-serif; font-size: 12px; fill: rgb(42, 63, 95); fill-opacity: 1; white-space: pre; opacity: 1;" transform="translate(420.42,0)">2000</text></g><g class="xtick"><text text-anchor="middle" x="0" y="367" style="font-family: 'Open Sans', verdana, arial, sans-serif; font-size: 12px; fill: rgb(42, 63, 95); fill-opacity: 1; white-space: pre; opacity: 1;" transform="translate(513.05,0)">2500</text></g></g><g class="yaxislayer-above"><g class="ytick"><text text-anchor="end" x="45" y="4.199999999999999" transform="translate(0,325.79)" style="font-family: 'Open Sans', verdana, arial, sans-serif; font-size: 12px; fill: rgb(42, 63, 95); fill-opacity: 1; white-space: pre; opacity: 1;">0</text></g><g class="ytick"><text text-anchor="end" x="45" y="4.199999999999999" style="font-family: 'Open Sans', verdana, arial, sans-serif; font-size: 12px; fill: rgb(42, 63, 95); fill-opacity: 1; white-space: pre; opacity: 1;" transform="translate(0,275.16999999999996)">50k</text></g><g class="ytick"><text text-anchor="end" x="45" y="4.199999999999999" style="font-family: 'Open Sans', verdana, arial, sans-serif; font-size: 12px; fill: rgb(42, 63, 95); fill-opacity: 1; white-space: pre; opacity: 1;" transform="translate(0,224.54)">100k</text></g><g class="ytick"><text text-anchor="end" x="45" y="4.199999999999999" style="font-family: 'Open Sans', verdana, arial, sans-serif; font-size: 12px; fill: rgb(42, 63, 95); fill-opacity: 1; white-space: pre; opacity: 1;" transform="translate(0,173.91)">150k</text></g><g class="ytick"><text text-anchor="end" x="45" y="4.199999999999999" style="font-family: 'Open Sans', verdana, arial, sans-serif; font-size: 12px; fill: rgb(42, 63, 95); fill-opacity: 1; white-space: pre; opacity: 1;" transform="translate(0,123.28)">200k</text></g><g class="ytick"><text text-anchor="end" x="45" y="4.199999999999999" style="font-family: 'Open Sans', verdana, arial, sans-serif; font-size: 12px; fill: rgb(42, 63, 95); fill-opacity: 1; white-space: pre; opacity: 1;" transform="translate(0,72.65)">250k</text></g></g><g class="overaxes-above"/></g></g><g class="polarlayer"/><g class="smithlayer"/><g class="ternarylayer"/><g class="geolayer"/><g class="funnelarealayer"/><g class="pielayer"/><g class="iciclelayer"/><g class="treemaplayer"/><g class="sunburstlayer"/><g class="glimages"/><defs id="topdefs-682c03"><g class="clips"/></defs><g class="layer-above"><g class="imagelayer"/><g class="shapelayer"/></g><g class="infolayer"><g class="g-gtitle"><text class="gtitle" x="30" y="25" text-anchor="start" dy="0em" style="font-family: 'Open Sans', verdana, arial, sans-serif; font-size: 17px; fill: rgb(42, 63, 95); opacity: 1; font-weight: normal; white-space: pre;">BPC</text></g><g class="g-xtitle"><text class="xtitle" x="300" y="389.8" text-anchor="middle" style="font-family: 'Open Sans', verdana, arial, sans-serif; font-size: 14px; fill: rgb(42, 63, 95); opacity: 1; font-weight: normal; white-space: pre;">rt</text></g><g class="g-ytitle" transform="translate(19.2998046875,0)"><text class="ytitle" transform="rotate(-90,-5.299999999999997,200)" x="-5.299999999999997" y="200" text-anchor="middle" style="font-family: 'Open Sans', verdana, arial, sans-serif; font-size: 14px; fill: rgb(42, 63, 95); opacity: 1; font-weight: normal; white-space: pre;">intensity</text></g></g></svg>
